<svg id="Capa_1" data-name="Capa 1" xmlns="http://www.w3.org/2000/svg" xmlns:xlink="http://www.w3.org/1999/xlink" viewBox="0 0 477.93 191.7"><defs><style>.cls-1{fill:url(#Degradado_sin_nombre_116);}.cls-2{fill:url(#Degradado_sin_nombre_135);}.cls-3{fill:url(#Degradado_sin_nombre_135-2);}.cls-4{fill:url(#Degradado_sin_nombre_135-3);}.cls-5{fill:url(#Degradado_sin_nombre_135-4);}.cls-6{fill:url(#Degradado_sin_nombre_135-5);}.cls-7{fill:url(#Degradado_sin_nombre_135-6);}.cls-8{fill:url(#Degradado_sin_nombre_135-7);}.cls-9{font-size:14.57px;font-family:MyriadPro-Regular, Myriad Pro;}.cls-15,.cls-9{fill:#b21917;}.cls-10{letter-spacing:-0.01em;}.cls-11{letter-spacing:-0.03em;}.cls-12{letter-spacing:-0.03em;}.cls-13{letter-spacing:-0.03em;}.cls-14{letter-spacing:0.01em;}</style><linearGradient id="Degradado_sin_nombre_116" x1="58.62" y1="229.92" x2="409.42" y2="229.92" gradientUnits="userSpaceOnUse"><stop offset="0" stop-color="#b21917"/><stop offset="0.13" stop-color="#b31d1b"/><stop offset="0.26" stop-color="#b72928"/><stop offset="0.39" stop-color="#be3e3c"/><stop offset="0.53" stop-color="#c85b59"/><stop offset="0.66" stop-color="#d4807e"/><stop offset="0.8" stop-color="#e4adac"/><stop offset="0.93" stop-color="#f5e1e1"/><stop offset="1" stop-color="#fff"/></linearGradient><linearGradient id="Degradado_sin_nombre_135" x1="57.4" y1="332.14" x2="57.4" y2="267.94" gradientUnits="userSpaceOnUse"><stop offset="0.54" stop-color="#878787"/><stop offset="0.58" stop-color="#979797"/><stop offset="0.66" stop-color="#acacac"/><stop offset="0.74" stop-color="#bbb"/><stop offset="0.84" stop-color="#c3c3c3"/><stop offset="1" stop-color="#c6c6c6"/></linearGradient><linearGradient id="Degradado_sin_nombre_135-2" x1="126.58" y1="332.14" x2="126.58" y2="267.94" xlink:href="#Degradado_sin_nombre_135"/><linearGradient id="Degradado_sin_nombre_135-3" x1="190.55" y1="332.14" x2="190.55" y2="267.94" xlink:href="#Degradado_sin_nombre_135"/><linearGradient id="Degradado_sin_nombre_135-4" x1="256.52" y1="333.24" x2="256.52" y2="266.84" xlink:href="#Degradado_sin_nombre_135"/><linearGradient id="Degradado_sin_nombre_135-5" x1="323.29" y1="332.14" x2="323.29" y2="267.94" xlink:href="#Degradado_sin_nombre_135"/><linearGradient id="Degradado_sin_nombre_135-6" x1="393.62" y1="332.14" x2="393.62" y2="267.94" xlink:href="#Degradado_sin_nombre_135"/><linearGradient id="Degradado_sin_nombre_135-7" x1="454.86" y1="333.24" x2="454.86" y2="266.84" xlink:href="#Degradado_sin_nombre_135"/></defs><path class="cls-1" d="M409.42,244.29,99.74,243l-30.13.08c7-2.06,13.46-5.12,18.9-10.44a24.76,24.76,0,0,0,2.14-2.81c-1-.61-2-1.54-3.06-1.75-8.15-1.56-16.33-3-24.49-4.46-1.3-.24-2.55-.74-4.48-1.31,5.87-6,12.88-6.78,19.41-6.76,22.49.09,45,.81,67.48,1.52,19.05.6,38.08,1.49,57.12,2.29,22,.92,44.05,1.82,66.06,2.84,9.74.45,19.47,1.14,29.2,1.81a12.52,12.52,0,0,1,5.52,1.74c-53.26,1.44-106.41-2.15-159.57-1.28l-.3,1.38c.85.8,1.68,1.64,2.56,2.41,5.05,4.42,10.05,8.92,15.24,13.17a7.25,7.25,0,0,0,4.52,1.37l-12.16.2c-12.65-15.64-33.29-23.33-54,0" transform="translate(-16.76 -162.64)"/><path d="M174.58,241.58c11.17-.46,22.33-1.28,33.51-1.67,15.91-.54,31.84-.75,47.75-1.2,20.32-.58,40.64-1.12,61-1.93,10.69-.43,21.36-1.34,32-2.21,1.5-.13,2.92-1.31,4.38-2-1.2-1.09-2.2-2.66-3.61-3.2-15.43-5.94-31.25-10.3-47.81-11.6-19.29-1.53-38.57-3.11-57.86-4.55-10.37-.78-20.74-1.41-31.13-2-14.43-.76-28.87-1.62-43.32-2-13.38-.34-26.77-.1-40.16-.1-15.29,0-30.59,0-45.88.07-4.55,0-9.1.7-13.65.79-8.83.17-8.84.09-13.5-9,3.47-.7,6.69-1.36,9.92-2,9.66-1.92,19.59-3,28.93-5.94,11.61-3.66,22.81-8.66,34-13.42,13.55-5.75,27.17-11,41.91-13.06,9.26-1.31,18.41-2.67,27.78-3.46,27.57-2.33,53.61,3.67,79.52,11.59,21,6.4,39.59,18,59.6,26.49,7.06,3,15.11,3.8,22.78,5.21,14.79,2.71,29.72,4.75,44.43,7.81,11.22,2.34,22.21,5.81,31.87,12.39,1,.7,2,1.58,3,2.27a14,14,0,0,0,2.16,1l-.9,1.18-29-4.72-.34,1L460,250H51.77c-.06-.45,0-2.05,0-6.91Zm-52.23-51.32c1.5,2.66,2.46,4.61,3.67,6.39.66,1,1.67,2.18,2.68,2.36a62.32,62.32,0,0,0,8.86.78c20.1.72,40.2,1.36,60.31,2.08q25.26.9,50.51,1.91,13.23.5,26.45,1c15.42.62,30.83,1.29,46.24,1.83a24.94,24.94,0,0,0,5.13-.88l-.07-1.56C260.64,166.37,193.17,156.52,122.35,190.26Zm295.8,52.82c-18.77-18.53-39.25-22.68-60.88,0Z" transform="translate(-16.76 -162.64)"/><path class="cls-2" d="M29,267.94H64.54q8.88,0,13.64,4.6a15.22,15.22,0,0,1,4.75,11.38,14.76,14.76,0,0,1-3.39,9.77A15.07,15.07,0,0,1,72.92,298q6.61,1.66,9.74,5.72a16.18,16.18,0,0,1,3.12,10.18,18.14,18.14,0,0,1-2.22,9,16.75,16.75,0,0,1-6.08,6.31,19.47,19.47,0,0,1-7.2,2.1,80.18,80.18,0,0,1-8.5.87H29Zm19.14,25.18h8.25q4.44,0,6.17-1.6a5.94,5.94,0,0,0,1.74-4.62,5.61,5.61,0,0,0-1.74-4.38q-1.73-1.57-6.05-1.57H48.17Zm0,25.23h9.67q4.9,0,6.91-1.82a6.25,6.25,0,0,0,2-4.88,5.76,5.76,0,0,0-2-4.58c-1.32-1.15-3.65-1.73-7-1.73H48.17Z" transform="translate(-16.76 -162.64)"/><path class="cls-3" d="M96.38,332.14v-64.2H128q8.81,0,13.45,1.57a14.48,14.48,0,0,1,7.5,5.85,20.52,20.52,0,0,1,.66,19.62,17.44,17.44,0,0,1-6,6.29,22.34,22.34,0,0,1-6.66,2.54,19,19,0,0,1,4.94,2.36,19.76,19.76,0,0,1,3,3.38,24.84,24.84,0,0,1,2.66,4l9.19,18.6H135.34L125.2,312.52c-1.29-2.54-2.43-4.19-3.44-4.95a7.7,7.7,0,0,0-4.65-1.49h-1.67v26.06ZM115.44,294h8a27.78,27.78,0,0,0,5-.87,5,5,0,0,0,3.07-2,6.09,6.09,0,0,0,1.2-3.72,6,6,0,0,0-1.89-4.77q-1.87-1.67-7.08-1.67h-8.33Z" transform="translate(-16.76 -162.64)"/><path class="cls-4" d="M201,321.54H179.49l-3,10.6H157.12l23.08-64.2h20.7L224,332.14H204.1Zm-3.94-13.88-6.77-23.08-6.71,23.08Z" transform="translate(-16.76 -162.64)"/><path class="cls-5" d="M269.76,305.87l16.62,5.25a32.65,32.65,0,0,1-5.27,12.22,23.15,23.15,0,0,1-8.95,7.4q-5.34,2.5-13.59,2.5-10,0-16.35-3t-10.95-10.7q-4.62-7.67-4.61-19.61,0-15.93,8.1-24.49t22.93-8.56q11.61,0,18.24,4.91t9.87,15.06L269,290.71a15.22,15.22,0,0,0-1.84-4.29,11,11,0,0,0-3.89-3.5,10.8,10.8,0,0,0-5.16-1.23,11,11,0,0,0-9.88,5.43q-2.6,4-2.6,12.64,0,10.67,3.1,14.63a10.43,10.43,0,0,0,8.71,4c3.63,0,6.38-1.07,8.23-3.2S268.92,309.92,269.76,305.87Z" transform="translate(-16.76 -162.64)"/><path class="cls-6" d="M333.77,321.54H312.23l-3,10.6H289.87L313,267.94h20.69l23.07,64.2H336.85Zm-3.93-13.88-6.78-23.08-6.71,23.08Z" transform="translate(-16.76 -162.64)"/><path class="cls-7" d="M363.42,332.14v-64.2h31.63q8.79,0,13.44,1.57a14.48,14.48,0,0,1,7.5,5.85,18.33,18.33,0,0,1,2.85,10.4,18.52,18.52,0,0,1-2.18,9.22,17.47,17.47,0,0,1-6,6.29,22.34,22.34,0,0,1-6.66,2.54,18.83,18.83,0,0,1,4.94,2.36,19.76,19.76,0,0,1,3,3.38,24.16,24.16,0,0,1,2.66,4l9.19,18.6H402.38l-10.14-19.62a15,15,0,0,0-3.43-4.95,7.75,7.75,0,0,0-4.65-1.49h-1.68v26.06ZM382.48,294h8a27.64,27.64,0,0,0,5-.87,5.07,5.07,0,0,0,3.08-2,6.14,6.14,0,0,0,1.19-3.72,6,6,0,0,0-1.89-4.77q-1.87-1.67-7.07-1.67h-8.34Z" transform="translate(-16.76 -162.64)"/><path class="cls-8" d="M427,310.9l18.06-1.18a14.82,14.82,0,0,0,2.38,7,9.86,9.86,0,0,0,8.38,3.89,9,9,0,0,0,6.26-2,5.89,5.89,0,0,0,.11-9.09q-2.1-2-9.72-3.72Q440,302.9,434.68,298a16,16,0,0,1-5.36-12.4,17.38,17.38,0,0,1,2.74-9.35,18.43,18.43,0,0,1,8.25-6.92q5.51-2.52,15.1-2.52,11.76,0,17.95,4.58T480.71,286l-17.89,1.1c-.47-2.89-1.47-5-3-6.31a9.34,9.34,0,0,0-6.3-2,7.38,7.38,0,0,0-5,1.47,4.55,4.55,0,0,0-1.67,3.57,3.61,3.61,0,0,0,1.38,2.75q1.33,1.28,6.36,2.37,12.45,2.81,17.82,5.67a19.08,19.08,0,0,1,7.84,7.12,18.7,18.7,0,0,1,2.45,9.5,21,21,0,0,1-3.27,11.39,20.76,20.76,0,0,1-9.13,7.91q-5.86,2.68-14.78,2.69-15.68,0-21.7-6.31A25.4,25.4,0,0,1,427,310.9Z" transform="translate(-16.76 -162.64)"/><text class="cls-9" transform="translate(126.16 188.06)"><tspan class="cls-10">A</tspan><tspan x="8.7" y="0">GENCIA </tspan><tspan class="cls-11" x="58.8" y="0">A</tspan><tspan x="67.3" y="0">U</tspan><tspan class="cls-12" x="76.73" y="0">T</tspan><tspan x="83.58" y="0">OM</tspan><tspan class="cls-13" x="105.33" y="0">O</tspan><tspan x="115" y="0">TRIZ SEMINU</tspan><tspan class="cls-14" x="193.26" y="0">E</tspan><tspan x="200.55" y="0">VOS</tspan></text><rect class="cls-15" y="181.73" width="119.69" height="1.18"/><rect class="cls-15" y="184.67" width="119.69" height="1.18"/><rect class="cls-15" x="358.24" y="181.73" width="119.69" height="1.18"/><rect class="cls-15" x="358.24" y="184.67" width="119.69" height="1.18"/></svg>